<svg class="icon" viewBox="0 0 1024 1024" xmlns="http://www.w3.org/2000/svg" width="200" height="200"><path d="M83.2 654.4h854.4c25.6 0 48-20.8 48-48V89.6c0-25.6-20.8-48-48-48H83.2C70.4 43.2 59.2 48 49.6 56c-8 9.6-14.4 22.4-14.4 33.6v516.8c0 25.6 22.4 48 48 48zm158.4-395.2H512c22.4 0 41.6 19.2 41.6 41.6 0 22.4-19.2 41.6-41.6 41.6H241.6c-22.4 0-41.6-19.2-41.6-41.6 0-22.4 17.6-41.6 41.6-41.6zM76.8 814.4H944c22.4 0 41.6-19.2 41.6-41.6 0-22.4-19.2-41.6-41.6-41.6H76.8c-22.4 0-41.6 19.2-41.6 41.6 1.6 22.4 19.2 41.6 41.6 41.6zm870.4 100.8H80c-22.4 0-41.6 19.2-41.6 41.6 0 22.4 19.2 41.6 41.6 41.6h865.6c22.4 0 41.6-19.2 41.6-41.6 1.6-22.4-17.6-41.6-40-41.6z" fill="#ff9457" data-spm-anchor-id="a313x.7781069.0.i1"/><path d="M868.8 128H155.2c-14.4 0-27.2 11.2-27.2 27.2v377.6c0 14.4 12.8 27.2 27.2 27.2h712c14.4 0 27.2-12.8 27.2-27.2V155.2c1.6-16-11.2-27.2-25.6-27.2zM512 342.4H241.6c-22.4 0-41.6-19.2-41.6-41.6 0-22.4 19.2-41.6 41.6-41.6H512c22.4 0 41.6 19.2 41.6 41.6 0 24-19.2 41.6-41.6 41.6z" fill="#ffc5a2" data-spm-anchor-id="a313x.7781069.0.i2" class="selected"/></svg>