<svg class="icon" viewBox="0 0 1024 1024" xmlns="http://www.w3.org/2000/svg" width="200" height="200"><path d="M510.912 427.904c283.136 0 510.976-95.808 510.976-212.864 0-21.312-6.4-40.448-21.312-59.648-6.4-8.512-12.8-14.912-19.2-23.424a56.448 56.448 0 0 0-12.736-10.624c-4.224-4.224-10.624-8.512-17.024-12.8-4.224-2.112-8.512-6.4-12.8-8.512-8.512-6.4-19.136-10.624-27.648-17.024-19.2-10.624-42.56-19.2-65.984-29.76a652.544 652.544 0 0 0-76.672-23.424c-17.024-4.288-36.16-8.512-55.36-12.8A1092.608 1092.608 0 0 0 562.048 0c-17.024 2.112-34.112 2.112-51.136 2.112s-34.048 0-53.184 2.176C404.48 6.4 353.408 12.8 306.56 21.312c-19.2 4.224-38.336 6.4-55.36 10.624-25.536 6.4-51.072 12.8-74.496 21.312-23.424 8.512-42.56 17.024-61.76 25.536-6.4 4.224-14.912 8.512-21.248 12.8-21.312 12.736-38.4 25.536-53.248 40.384-10.624 10.688-19.2 21.312-25.6 32A94.144 94.144 0 0 0 0 215.04c0 117.12 227.84 212.864 510.912 212.864z" fill="#ffc5a2" data-spm-anchor-id="a313x.7781069.0.i13" class="selected"/><path d="M510.912 513.088C310.848 513.088 110.72 466.24 0 376.768v136.32c0 117.12 227.84 212.864 510.912 212.864 283.136 0 510.976-95.808 510.976-212.864v-136.32c-110.72 89.472-310.848 136.32-510.976 136.32zm-361.92 85.12a42.688 42.688 0 0 1-42.56-42.56c0-23.424 19.2-42.56 42.56-42.56 23.424 0 42.624 19.136 42.624 42.56 0 23.424-19.2 42.56-42.624 42.56z" fill="#ff9457" data-spm-anchor-id="a313x.7781069.0.i11"/><path d="M510.912 811.136c-200.064 0-400.192-46.848-510.912-136.32v157.568h2.112C27.712 940.992 244.8 1024 510.912 1024s483.264-83.008 508.8-191.616h2.176V674.88c-110.72 89.408-310.848 136.256-510.976 136.256zm-361.92 85.12a42.688 42.688 0 0 1-42.56-42.56c0-23.424 19.2-42.56 42.56-42.56 23.424 0 42.624 19.136 42.624 42.56 0 23.424-19.2 42.56-42.624 42.56z" fill="#ff9457" data-spm-anchor-id="a313x.7781069.0.i12"/></svg>