<svg class="icon" viewBox="0 0 1024 1024" xmlns="http://www.w3.org/2000/svg" width="200" height="200"><path d="m268.288 658.603-76.8-37.206 150.23-310.357V42.667h341.546v268.416L832.981 621.44l-76.8 37.12-158.25-327.979V128H427.05v202.624L268.288 658.603z" fill="#ff9457" data-spm-anchor-id="a313x.7781069.0.i22"/><path d="M166.272 931.67a69.845 69.845 0 0 1-32.427-93.27L229.888 640S384 746.667 512 640s282.581 0 282.581 0l95.744 198.485a69.845 69.845 0 0 1-62.89 100.182H196.693c-10.538 0-20.906-2.432-30.421-6.998z" fill="#fecdad" data-spm-anchor-id="a313x.7781069.0.i20"/><path d="M827.477 981.333H196.693a112.81 112.81 0 0 1-106.24-75.562 112.043 112.043 0 0 1 4.992-85.974l117.76-243.285 40.96 28.373c.47.299 59.264 39.851 127.787 39.851 38.827 0 72.405-12.288 102.699-37.547a240.043 240.043 0 0 1 157.482-57.301c95.915 0 173.398 52.693 176.683 54.955l9.301 6.4 100.608 208.682a112.64 112.64 0 0 1-101.248 161.408zM248.832 698.88l-76.544 158.123a27.008 27.008 0 0 0 12.544 36.224A27.008 27.008 0 0 0 196.693 896h630.784a27.179 27.179 0 0 0 24.491-38.955L761.643 669.74c-18.944-10.838-66.304-34.518-119.424-34.518-38.912 0-72.534 12.288-102.827 37.547-45.653 38.016-98.603 57.301-157.355 57.301-53.376 0-100.949-16.298-133.205-31.189z" fill="#ff9457" data-spm-anchor-id="a313x.7781069.0.i21"/></svg>