<svg class="icon" viewBox="0 0 1151 1024" xmlns="http://www.w3.org/2000/svg" data-spm-anchor-id="a313x.7781069.0.i46" width="224.805" height="200"><path d="M1113.61 951.64h-52.573V282.894a36.146 36.146 0 0 0-18.785-31.829L587.842 4.451a36.146 36.146 0 0 0-34.72 0L108.55 251.287a36.146 36.146 0 0 0-18.562 31.561v668.793H37.415a36.19 36.19 0 1 0 0 72.337H1113.61a36.19 36.19 0 1 0 0-72.337zm-951.553 0V304.083L570.66 77.946 989.1 304.972v646.669z" fill="#ff9457" data-spm-anchor-id="a313x.7781069.0.i44"/><path d="M599.64 696.348V389.684a24.127 24.127 0 1 0-48.21 0V696.57a56.668 56.668 0 1 0 48.21 0z" fill="#ff9457" data-spm-anchor-id="a313x.7781069.0.i48"/><path d="M703.048 338.58a127.669 127.669 0 0 0-255.294 0v317.971a156.693 156.693 0 1 0 255.294 0zM575.512 832.075a84.133 84.133 0 0 1-63.879-139.332 36.146 36.146 0 0 0 8.68-24.127V338.58a55.332 55.332 0 0 1 110.665 0v330.523a36.146 36.146 0 0 0 8.68 24.128 84.133 84.133 0 0 1-64.146 138.842zM349.154 362.708h-90.41a36.19 36.19 0 1 0 0 72.337h90.41a36.19 36.19 0 1 0 0-72.337zm543.082 0h-90.41a36.19 36.19 0 1 0 0 72.337h90.41a36.19 36.19 0 1 0 0-72.337zM349.154 537.474h-90.41a36.19 36.19 0 1 0 0 72.337h90.41a36.19 36.19 0 1 0 0-72.337zm543.082 0h-90.41a36.19 36.19 0 1 0 0 72.337h90.41a36.19 36.19 0 1 0 0-72.337zM324.982 712.239h-66.283a36.19 36.19 0 1 0 0 72.337h66.283a36.19 36.19 0 1 0 0-72.337zm567.254 0h-66.283a36.19 36.19 0 1 0 0 72.337h66.283a36.19 36.19 0 1 0 0-72.337z" fill="#ffc5a2" data-spm-anchor-id="a313x.7781069.0.i47"/></svg>