<svg class="icon" viewBox="0 0 1024 1024" xmlns="http://www.w3.org/2000/svg" width="200" height="200"><path d="M818.127 939.73h-594.58c-24.037 0-43.833 22.623-43.833 50.196 0 27.572 19.796 50.196 43.834 50.196h594.579c24.038 0 43.833-22.624 43.833-50.196.707-27.573-19.088-50.197-43.833-50.197z" fill="#FFD176"/><path d="M955.99 36.195H80.736c-31.108 0-56.56 26.866-56.56 60.095v675.883c0 33.228 25.452 60.094 56.56 60.094h875.961c31.108 0 56.56-26.866 56.56-60.094V96.29c0-33.229-25.452-60.095-57.267-60.095z" fill="#ff9457" data-spm-anchor-id="a313x.7781069.0.i6" class="selected"/><path d="M885.998 239.809a47.51 47.51 0 0 0-31.815-16.968 43.126 43.126 0 0 0-33.935 12.019L588.355 449.785c-.707.707-1.414.707-2.121.707L425.04 355.048a68.154 68.154 0 0 0-86.253 14.14l-167.556 188.06c-17.675 19.795-16.968 49.489 1.414 68.577a44.47 44.47 0 0 0 66.457-1.414l154.83-173.92c.708-.706 1.415-.706 2.122 0l159.78 94.03c26.158 15.554 59.387 12.02 82.01-9.19l244.619-226.237c18.382-18.382 20.503-48.783 3.535-69.285z" fill="#FFD176"/></svg>