<svg class="icon" viewBox="0 0 1024 1024" xmlns="http://www.w3.org/2000/svg" width="200" height="200"><path d="M0 0h1024v1024H0V0z" fill="#202425" opacity=".01"/><path d="M102.4 273.067a68.267 68.267 0 0 0-68.267 68.266v443.734A136.533 136.533 0 0 0 170.667 921.6h217.702c14.473 0 26.692 10.103 37.171 20.07 9.182 8.704 21.607 14.063 35.26 14.063h102.4c13.653 0 26.078-5.359 35.26-14.063 10.479-9.967 22.698-20.07 37.17-20.07h217.703a136.533 136.533 0 0 0 136.534-136.533V341.333a68.267 68.267 0 0 0-68.267-68.266H102.4z" fill="#F74"/><path d="M170.667 68.267a68.267 68.267 0 0 0-68.267 68.266v614.4a102.4 102.4 0 0 0 102.4 102.4h614.4a102.4 102.4 0 0 0 102.4-102.4v-614.4a68.267 68.267 0 0 0-68.267-68.266H716.8a204.8 204.8 0 0 0-204.8 204.8 204.8 204.8 0 0 0-204.8-204.8H170.667z" fill="#FA4"/><path d="M512 324.267a51.2 51.2 0 0 1 51.2 51.2v375.466a51.2 51.2 0 0 1-102.4 0V375.467a51.2 51.2 0 0 1 51.2-51.2z" fill="#FFF"/></svg>