<svg class="icon" viewBox="0 0 1024 1024" xmlns="http://www.w3.org/2000/svg" width="200" height="200"><path d="M103.936 566.118h445.133a66.56 66.56 0 1 0 0-133.12H103.936a66.56 66.56 0 0 0 0 133.12zm-5.427 184.32h445.133a66.56 66.56 0 0 0 0-133.12H98.509a66.56 66.56 0 0 0 0 133.12zm517.12 117.76a66.56 66.56 0 0 0-66.56-66.56H103.936a66.56 66.56 0 0 0 0 133.12h445.133a66.56 66.56 0 0 0 66.56-66.56z" fill="#ffc5a2" data-spm-anchor-id="a313x.7781069.0.i14" class="selected"/><path d="M982.067 851.456 542.413 99.482a72.346 72.346 0 0 0-124.928 0l-180.02 307.916H542.72a92.16 92.16 0 0 1 0 184.32 92.16 92.16 0 0 1 0 184.32 92.16 92.16 0 0 1 0 184.32h377.088a72.397 72.397 0 0 0 62.26-108.902z" fill="#ff9457" data-spm-anchor-id="a313x.7781069.0.i13"/></svg>