<svg class="icon" viewBox="0 0 1024 1024" xmlns="http://www.w3.org/2000/svg" width="200" height="200"><path d="M175.616 248.32a233.984 233.984 0 1 0 467.968 0 233.984 233.984 0 1 0-467.968 0Z" fill="#FFCDAB"/><path d="M626.176 444.416c14.336 3.072 31.744 9.216 47.104 9.216 96.256 0 175.616-78.848 175.616-175.616S769.536 102.4 672.768 102.4h-9.216c23.552 44.032 37.888 93.696 37.888 146.432.512 75.776-28.672 145.92-75.264 195.584z" fill="#FFCDAB"/><path d="M672.768 512c-26.624 0-52.224 3.072-78.848 9.216C752.128 588.8 863.744 740.864 875.008 922.112h90.624c31.744 0 58.368-26.624 58.368-58.368C1024 670.208 865.792 512 672.768 512z" fill="#FFA161"/><path d="M409.6 541.696c-225.792 0-409.6 184.32-409.6 409.6 0 17.408 0 58.368 58.368 58.368h702.464c58.368 0 58.368-40.96 58.368-58.368.512-225.792-184.32-409.6-409.6-409.6z" fill="#FFA161"/></svg>