<svg class="icon" viewBox="0 0 1024 1024" xmlns="http://www.w3.org/2000/svg" width="200" height="200"><path d="M173.653 149.333H423.68q66.987 0 66.987 66.987v122.027q0 66.986-66.987 66.986H173.653q-66.986 0-66.986-66.986V216.32q0-66.987 66.986-66.987Z" fill="#DAF3CC"/><path d="M423.68 426.667H173.653a88.747 88.747 0 0 1-88.32-88.32V216.32a88.747 88.747 0 0 1 88.32-88.32H423.68A88.747 88.747 0 0 1 512 216.32v122.027a88.747 88.747 0 0 1-88.32 88.32zm-250.027-256A46.08 46.08 0 0 0 128 216.32v122.027A46.08 46.08 0 0 0 173.653 384H423.68a46.08 46.08 0 0 0 45.653-45.653V216.32a46.08 46.08 0 0 0-45.653-45.653zM405.333 512H192a21.333 21.333 0 0 1 0-42.667h213.333a21.333 21.333 0 0 1 0 42.667z" fill="#4F922A"/><path d="M256 509.867h42.667V531.2H256zm0 72.106h42.667v50.347H256zm0 100.694h42.667v42.666H256zm210.773 42.666h-40.106v-42.666h42.666zm-82.773 0h-42.667v-42.666H384zm125.013-42.666h21.334v42.666h-21.334zM640 256a128 128 0 1 0 256 0 128 128 0 1 0-256 0Z" fill="#4F922A"/><path d="M750.933 321.707a21.333 21.333 0 0 1-14.506-5.547l-47.36-42.667a21.333 21.333 0 0 1 29.013-31.146l31.573 29.44 61.014-72.534a21.333 21.333 0 0 1 31.573 28.587L768 314.453a21.333 21.333 0 0 1-14.933 7.254zM557.653 533.333H807.68q66.987 0 66.987 66.987v122.027q0 66.986-66.987 66.986H557.653q-66.986 0-66.986-66.986V600.32q0-66.987 66.986-66.987Z" fill="#DAF3CC"/><path d="M807.68 810.667H557.653a88.747 88.747 0 0 1-88.32-88.32V600.32a88.747 88.747 0 0 1 88.32-88.32h249.6A88.747 88.747 0 0 1 896 600.32v121.6a88.747 88.747 0 0 1-88.32 88.747zm-249.6-256A46.08 46.08 0 0 0 512 600.32v121.6A46.08 46.08 0 0 0 557.653 768h249.6a46.08 46.08 0 0 0 46.08-45.653V600.32a46.08 46.08 0 0 0-45.653-45.653zM789.333 896H576a21.333 21.333 0 0 1 0-42.667h213.333a21.333 21.333 0 0 1 0 42.667zM512 256h42.667v42.667H512zm74.667.427h42.666v42.666h-42.666zm157.44 144.64h42.666v42.666h-42.666z" fill="#4F922A"/><path d="M744.107 477.013h42.666v42.667h-42.666z" fill="#4F922A"/></svg>