<svg class="icon" viewBox="0 0 1024 1024" xmlns="http://www.w3.org/2000/svg" width="200" height="200"><path d="M298.667 128h128v288A10.667 10.667 0 0 1 416 426.667H128v-128h160A10.667 10.667 0 0 0 298.667 288V128zm0 768V736A10.667 10.667 0 0 0 288 725.333H128v-128h288A10.667 10.667 0 0 1 426.667 608v288h-128zM896 725.333H736A10.667 10.667 0 0 0 725.333 736v160h-128V608A10.667 10.667 0 0 1 608 597.333h288v128zM725.333 128v160c0 5.888 4.779 10.667 10.667 10.667h160v128H608A10.667 10.667 0 0 1 597.333 416V128h128z"/></svg>