<svg class="icon" viewBox="0 0 1024 1024" xmlns="http://www.w3.org/2000/svg" width="200" height="200"><path d="M256 426.667H128v-288A10.667 10.667 0 0 1 138.667 128h288v128h-160A10.667 10.667 0 0 0 256 266.667v160zm0 170.666v160c0 5.888 4.779 10.667 10.667 10.667h160v128h-288A10.667 10.667 0 0 1 128 885.333v-288h128zM597.333 768h160A10.667 10.667 0 0 0 768 757.333v-160h128v288A10.667 10.667 0 0 1 885.333 896h-288V768zM768 426.667v-160A10.667 10.667 0 0 0 757.333 256h-160V128h288A10.667 10.667 0 0 1 896 138.667v288H768z"/></svg>