<svg class="icon" viewBox="0 0 1024 1024" xmlns="http://www.w3.org/2000/svg" width="200" height="200"><path d="M923.307 554.667a42.667 42.667 0 0 0-44.8-5.974A343.467 343.467 0 0 1 734.72 579.84a347.733 347.733 0 0 1-347.307-345.6 366.507 366.507 0 0 1 10.667-85.333 42.667 42.667 0 0 0-56.747-48.214 432.64 432.64 0 1 0 597.334 498.774 42.667 42.667 0 0 0-15.36-44.8zm-405.334 285.44A347.307 347.307 0 0 1 302.08 222.72v11.52a433.067 433.067 0 0 0 432.64 432.64 417.707 417.707 0 0 0 89.6-9.387 346.027 346.027 0 0 1-306.347 184.32z"/></svg>