<svg class="icon" viewBox="0 0 1024 1024" xmlns="http://www.w3.org/2000/svg" width="200" height="200"><path d="M883.203 595.546C840.68 772.644 694.6 896.211 509.999 896.211c-97.554 0-192.105-38.521-263.145-106.059l-64.536 64.536c-6.003 6.003-14.007 9.505-22.512 9.505-17.51 0-32.018-14.508-32.018-32.018V608.053c0-17.51 14.508-32.018 32.018-32.018H383.93c17.51 0 32.018 14.508 32.018 32.018 0 8.505-3.502 16.509-9.506 22.513l-68.537 68.537c47.025 44.024 109.56 69.038 174.096 69.038 89.049 0 171.594-46.025 218.119-122.067 12.006-19.511 18.01-38.521 26.516-58.532 2.5-7.003 7.504-11.506 15.008-11.506h96.053c9.004 0 16.008 7.504 16.008 16.009-.002 1-.002 2.5-.502 3.501zm13.008-179.599c0 17.51-14.508 32.018-32.018 32.018H640.07c-17.51 0-32.018-14.508-32.018-32.018 0-8.505 3.502-16.509 9.504-22.512l69.039-69.038c-47.527-44.024-110.06-68.538-174.595-68.538-89.049 0-171.595 46.025-218.12 122.067-12.007 19.511-18.01 38.521-26.515 58.532-2.501 7.004-7.504 11.506-15.008 11.506h-99.555c-9.005 0-16.009-7.504-16.009-16.009v-3.502C179.817 250.856 327.398 127.789 512 127.789c98.053 0 193.605 39.021 264.645 106.058l65.035-64.535c6.004-6.003 14.008-9.505 22.514-9.505 17.51 0 32.018 14.508 32.018 32.018v224.122z"/></svg>