<svg class="icon" viewBox="0 0 1024 1024" xmlns="http://www.w3.org/2000/svg" width="200" height="200"><path d="M554.667 42.667V128a42.667 42.667 0 0 1-85.334 0V42.667a42.667 42.667 0 0 1 85.334 0zM512 853.333A42.667 42.667 0 0 0 469.333 896v85.333a42.667 42.667 0 0 0 85.334 0V896A42.667 42.667 0 0 0 512 853.333zm-362.037-703.37a42.667 42.667 0 0 0 0 60.341l60.341 60.341a42.667 42.667 0 0 0 60.341-60.341l-60.341-60.341a42.667 42.667 0 0 0-60.341 0zm603.392 603.392a42.667 42.667 0 0 0 0 60.33v.011l60.341 60.341a42.667 42.667 0 0 0 60.341-60.341l-60.341-60.341a42.656 42.656 0 0 0-60.341 0zM0 512a42.667 42.667 0 0 0 42.667 42.667H128a42.667 42.667 0 0 0 0-85.334H42.667A42.667 42.667 0 0 0 0 512zm853.333 0A42.667 42.667 0 0 0 896 554.667h85.333a42.667 42.667 0 0 0 0-85.334H896A42.667 42.667 0 0 0 853.333 512zm-703.37 362.037a42.667 42.667 0 0 0 60.341 0l60.33-60.341a42.667 42.667 0 0 0-60.33-60.341l-60.341 60.341a42.667 42.667 0 0 0 0 60.341zm603.392-603.392a42.667 42.667 0 0 0 60.33 0h.011l60.341-60.341a42.667 42.667 0 0 0-60.341-60.341l-60.341 60.341a42.656 42.656 0 0 0 0 60.341zM768 512c0 141.387-114.613 256-256 256S256 653.387 256 512s114.613-256 256-256 256 114.613 256 256zm-85.333 0c0-94.261-76.406-170.667-170.667-170.667S341.333 417.74 341.333 512 417.74 682.667 512 682.667 682.667 606.26 682.667 512z"/></svg>